<svg width="248" height="100" viewBox="0 0 248 100" fill="none" xmlns="http://www.w3.org/2000/svg">
    <path d="M86.0023 40C88.2114 40 90.0023 41.7909 90.0023 44V56.5882C90.0023 58.7974 88.2114 60.5882 86.0023 60.5882L33.4141 60.5882C31.2049 60.5882 29.4141 58.7974 29.4141 56.5882L29.4141 44C29.4141 41.7909 31.2049 40 33.4141 40L86.0023 40Z" fill="#EB5351"/>
    <path d="M86.0023 40C88.2114 40 90.0023 41.7909 90.0023 44V56.5882C90.0023 58.7974 88.2114 60.5882 86.0023 60.5882L33.4141 60.5882C31.2049 60.5882 29.4141 58.7974 29.4141 56.5882L29.4141 44C29.4141 41.7909 31.2049 40 33.4141 40L86.0023 40Z" fill="url(#paint0_linear_28_995)" fill-opacity="0.2"/>
    <path d="M49.4141 24C49.4141 21.7909 51.2049 20 53.4141 20H66.0023C68.2114 20 70.0023 21.7909 70.0023 24V76.5882C70.0023 78.7974 68.2114 80.5882 66.0023 80.5882H53.4141C51.2049 80.5882 49.4141 78.7974 49.4141 76.5882V24Z" fill="#EB5351"/>
    <path d="M49.4141 24C49.4141 21.7909 51.2049 20 53.4141 20H66.0023C68.2114 20 70.0023 21.7909 70.0023 24V76.5882C70.0023 78.7974 68.2114 80.5882 66.0023 80.5882H53.4141C51.2049 80.5882 49.4141 78.7974 49.4141 76.5882V24Z" fill="url(#paint1_linear_28_995)" fill-opacity="0.2"/>
    <path fill-rule="evenodd" clip-rule="evenodd" d="M111.526 59.3145C111.582 59.0035 111.63 58.6845 111.686 58.3655C112.189 55.088 112.341 51.8424 112.197 48.6526C113.595 48.2857 115.152 45.7738 116.111 42.7275C116.901 40.1916 117.453 37.1294 117.109 35.2952C113.762 37.257 112.173 40.2953 111.622 43.0226C111.031 39.4021 110.048 35.9093 108.706 32.5998C109.809 31.6908 110.416 28.9236 110.344 25.8933C110.28 23.3095 109.841 20.3271 108.962 18.78C106.566 21.6987 106.038 24.9602 106.342 27.6158C104.281 23.8518 101.733 20.4148 98.7619 17.4243C98.011 15.7656 96.781 12.512 97.2842 9.38601C98.2107 14.6332 100.463 18.6444 100.471 19.1867C101.366 18.0304 101.07 15.0479 99.976 12.0734C99.0894 9.65714 97.7155 7.00165 96.3896 5.86926C94.9438 9.84058 95.7186 13.3812 97.0685 15.8055C95.503 14.386 93.8336 13.0782 92.0763 11.9059C92.0923 11.882 92.1083 11.8581 92.1243 11.8262C92.0923 11.8342 92.0523 11.8422 91.9964 11.8502C91.8766 11.7704 91.7648 11.6906 91.645 11.6109L91.8926 11.8502C90.8942 11.8581 87.196 11.276 83.0265 12.0415C86.2774 10.0001 90.7824 10.8932 91.1737 10.9171C90.5587 10.4785 89.728 10.0878 88.7535 9.84056C87.795 8.89957 85.1592 6.17227 84.6 2.79904C86.9883 7.11326 90.1833 9.88839 90.351 10.3669C90.7903 9.03511 89.6402 6.49923 87.787 4.25041C86.2774 2.41627 84.2646 0.550242 82.7549 0C82.6431 5.11965 85.5186 8.35728 87.9308 9.6651C85.5346 9.28232 82.5233 9.77678 79.8475 12.3446C81.2213 13.2218 83.8492 13.6524 86.1256 13.6923C88.8014 13.7401 91.2536 13.1021 92.0284 11.9697L92.8511 12.7513C94.5764 13.9794 96.2059 15.343 97.7315 16.8263C97.9152 17.0814 98.0989 17.3127 98.2826 17.528C96.0222 16.2122 92.8431 15.5344 89.2967 17.0575C90.367 18.469 92.8511 19.9204 95.1116 20.8534C97.8832 21.9937 100.671 22.2888 101.741 21.3239C103.602 23.7242 105.232 26.3319 106.606 29.0991C106.717 29.5536 106.861 29.9842 107.013 30.375C105.32 28.3175 102.556 26.5233 98.7619 26.6509C99.313 28.3654 101.174 30.6302 102.995 32.3208C105.232 34.4021 107.74 35.694 109.05 35.1836C108.579 35.0002 105.815 31.3957 101.534 28.7242C104.76 29.3144 107.412 32.1134 108.427 33.2697C109.92 37.1613 110.927 41.3001 111.382 45.5744C111.382 45.6621 111.39 45.7419 111.39 45.8296C110.416 43.19 108.331 40.3989 104.601 39.0831C104.577 40.9572 105.639 43.8599 106.845 46.1964C108.291 48.9875 110.232 51.1406 111.662 51.2603C111.638 53.5729 111.462 55.9094 111.103 58.2539C110.919 59.4501 110.695 60.6224 110.432 61.7787C110.328 58.6925 109.138 55.0402 105.807 52.2331C105.128 54.147 105.2 57.5681 105.631 60.4628C106.134 63.8361 107.332 66.7787 108.722 67.5682C107.604 70.6224 106.182 73.5012 104.521 76.1647C105.368 73.246 105.376 69.4342 103.171 65.6304C101.917 67.1854 100.902 70.4231 100.383 73.3019C99.7842 76.6193 99.96 79.7851 100.982 81.069C99.0254 83.4295 96.8449 85.5507 94.4886 87.4167C96.126 84.9925 97.2522 81.4996 96.4295 77.2492C94.7601 78.246 92.7712 80.9175 91.3654 83.4295C89.7759 86.2764 88.9293 89.2589 89.4325 90.8617C86.9404 92.3051 84.3045 93.4854 81.5648 94.3626C83.7933 92.664 85.8381 89.849 86.3972 85.6943C84.5042 86.0212 81.7884 87.7995 79.6638 89.6417C77.3154 91.6831 75.5981 94.1074 75.4783 95.79C73.1539 96.1409 70.7896 96.2924 68.3854 96.2127L67.0595 97.2493C70.534 97.361 73.9687 97.034 77.3154 96.3163C77.5391 96.2765 77.7707 96.2286 78.0024 96.1648C78.9529 95.9415 79.8954 95.6863 80.8219 95.3992C82.7709 95.5587 86.3653 96.1249 88.8893 98.3817C83.5936 96.396 78.6653 96.4917 78.1701 96.1887C78.7212 97.7756 81.6047 99.1473 84.9195 99.6816C87.6193 100.12 90.8063 100.168 92.5875 99.4264C89.8478 95.7501 86.2934 94.546 83.354 94.538C86.1097 93.5013 88.7615 92.1696 91.2616 90.5826C91.4134 90.4949 91.5651 90.3992 91.7169 90.2876C92.6355 89.6895 93.53 89.0515 94.4007 88.3817C96.3097 87.8155 99.7923 87.0818 102.828 88.2541C97.2203 88.3259 92.6195 90.2238 92.0523 90.1281C93.0747 91.42 96.2218 91.6512 99.5127 90.9335C102.189 90.3514 105.2 89.2349 106.638 87.8793C102.963 85.4789 99.305 85.5986 96.5653 86.6114C99.0015 84.4822 101.23 82.0499 103.195 79.3545C104.577 80.1679 107.588 79.2349 110.44 77.3609C112.772 75.8298 115.24 73.6766 116.159 71.8744C112.005 70.9812 108.65 72.3768 106.39 74.2907C107.932 71.4597 109.21 68.3975 110.176 65.128C111.734 65.4071 114.282 63.4214 116.374 60.6064C118.076 58.3177 119.713 55.3831 120.001 53.3496C115.751 54.0434 113.02 56.651 111.526 59.3145ZM92.5796 17.9985C95.6787 17.3924 98.9216 18.8916 100.359 19.6572C100.831 20.2074 101.294 20.7577 101.733 21.3318C101.206 21.3079 97.4519 18.9395 92.5796 17.9985ZM115.647 38.6924C113.331 43.1262 112.556 47.5361 112.189 48.509C112.141 47.5361 112.069 46.5632 111.965 45.6063C112.452 43.6924 113.507 40.6302 115.647 38.6924ZM108.674 22.3925C107.987 26.8821 108.499 30.8774 108.555 32.2569C108.203 31.4116 107.836 30.5823 107.444 29.7609C107.324 27.8391 107.38 24.8167 108.674 22.3925ZM106.622 42.1534C109.281 43.7802 110.895 46.9939 111.622 48.7084C111.654 49.5059 111.67 50.3033 111.67 51.1008C111.126 50.1438 109.617 46.013 106.622 42.1534ZM94.824 80.9734C94.84 84.2748 93.1946 87.4088 92.0603 89.2031C91.3654 89.6815 90.6546 90.1361 89.9277 90.5667C90.8143 89.0914 93.2425 85.5747 94.824 80.9734ZM83.6895 88.597C82.691 91.5874 80.2948 93.8681 78.6573 95.16C77.8506 95.3514 77.0359 95.5189 76.2132 95.6624C77.6349 94.546 80.8619 92.1776 83.6895 88.597ZM106.805 56.1965C108.914 58.86 109.473 62.6558 109.649 64.7611C109.401 65.5984 109.13 66.4198 108.842 67.2332C108.634 65.7499 108.459 61.1168 106.805 56.1965ZM102.851 69.7213C103.962 72.927 103.331 76.6193 102.82 78.6847C102.316 79.3785 101.797 80.0483 101.262 80.7102C101.589 79.1312 102.827 74.809 102.851 69.7213ZM112.692 73.6368C107.556 75.7181 103.898 79.0754 103.219 79.3306C103.834 78.4933 104.417 77.624 104.976 76.7309C106.622 75.4869 109.569 73.6448 112.692 73.6368ZM110.176 65.128C110.472 64.1391 110.727 63.1343 110.967 62.1136C112.101 60.3592 114.313 57.4485 117.309 56.2682C113.051 60.1837 110.671 64.809 110.176 65.128Z" fill="#FFC531"/>
    <path fill-rule="evenodd" clip-rule="evenodd" d="M8.47477 59.3145C8.41886 59.0035 8.37093 58.6845 8.31501 58.3655C7.8118 55.088 7.66003 51.8424 7.8038 48.6526C6.40599 48.2857 4.84846 45.7738 3.88996 42.7275C3.09919 40.1916 2.54806 37.1294 2.89152 35.2952C6.23828 37.257 7.82779 40.2953 8.37893 43.0226C8.97 39.4021 9.95244 35.9093 11.2943 32.5998C10.1921 31.6908 9.58502 28.9236 9.65691 25.8933C9.72081 23.3095 10.1601 20.3271 11.0387 18.78C13.435 21.6987 13.9622 24.9602 13.6587 27.6158C15.7194 23.8518 18.2674 20.4148 21.2388 17.4243C21.9896 15.7656 23.2197 12.512 22.7165 9.38601C21.7899 14.6332 19.5374 18.6444 19.5294 19.1867C18.6348 18.0304 18.9304 15.0479 20.0247 12.0734C20.9113 9.65714 22.2852 7.00165 23.6111 5.86926C25.0568 9.84058 24.282 13.3812 22.9321 15.8055C24.4977 14.386 26.1671 13.0782 27.9243 11.9059C27.9083 11.882 27.8924 11.8581 27.8764 11.8262C27.9083 11.8342 27.9483 11.8422 28.0042 11.8502C28.124 11.7704 28.2358 11.6906 28.3556 11.6109L28.108 11.8502C29.1065 11.8581 32.8047 11.276 36.9742 12.0415C33.7233 10.0001 29.2183 10.8932 28.8269 10.9171C29.4419 10.4785 30.2727 10.0878 31.2471 9.84056C32.2056 8.89957 34.8415 6.17227 35.4006 2.79904C33.0123 7.11326 29.8174 9.88839 29.6496 10.3669C29.2103 9.03511 30.3605 6.49923 32.2136 4.25041C33.7232 2.41627 35.7361 0.550242 37.2457 0C37.3575 5.11965 34.4821 8.35728 32.0698 9.6651C34.4661 9.28232 37.4774 9.77678 40.1532 12.3446C38.7793 13.2218 36.1515 13.6524 33.875 13.6923C31.1992 13.7401 28.747 13.1021 27.9722 11.9697L27.1496 12.7513C25.4243 13.9794 23.7948 15.343 22.2692 16.8263C22.0854 17.0814 21.9017 17.3127 21.718 17.528C23.9785 16.2122 27.1575 15.5344 30.704 17.0575C29.6336 18.469 27.1495 19.9204 24.8891 20.8534C22.1174 21.9937 19.3298 22.2888 18.2595 21.3239C16.3984 23.7242 14.7689 26.3319 13.3951 29.0991C13.2832 29.5536 13.1394 29.9842 12.9877 30.375C14.681 28.3175 17.4447 26.5233 21.2388 26.6509C20.6876 28.3654 18.8266 30.6302 17.0054 32.3208C14.7689 34.4021 12.2608 35.694 10.9509 35.1836C11.4221 35.0002 14.1858 31.3957 18.4671 28.7242C15.2402 29.3144 12.5883 32.1134 11.5739 33.2697C10.0803 37.1613 9.07383 41.3001 8.61854 45.5744C8.61854 45.6621 8.61055 45.7419 8.61055 45.8296C9.58502 43.19 11.6698 40.3989 15.3999 39.0831C15.4239 40.9572 14.3616 43.8599 13.1554 46.1964C11.7097 48.9875 9.76871 51.1406 8.33895 51.2603C8.36292 53.5729 8.53865 55.9094 8.89809 58.2539C9.0818 59.4501 9.30547 60.6224 9.56906 61.7787C9.6729 58.6925 10.863 55.0402 14.1938 52.2331C14.8727 54.147 14.8009 57.5681 14.3696 60.4628C13.8663 63.8361 12.6682 66.7787 11.2784 67.5682C12.3966 70.6224 13.8184 73.5012 15.4798 76.1647C14.6331 73.246 14.6251 69.4342 16.8297 65.6304C18.0837 67.1854 19.0982 70.4231 19.6173 73.3019C20.2164 76.6193 20.0407 79.7851 19.0183 81.069C20.9752 83.4295 23.1558 85.5507 25.5121 87.4167C23.8746 84.9925 22.7484 81.4996 23.5711 77.2492C25.2405 78.246 27.2294 80.9175 28.6352 83.4295C30.2247 86.2764 31.0714 89.2589 30.5682 90.8617C33.0603 92.3051 35.6962 93.4854 38.4359 94.3626C36.2074 92.664 34.1625 89.849 33.6034 85.6943C35.4965 86.0212 38.2122 87.7995 40.3369 89.6417C42.6852 91.6831 44.4026 94.1074 44.5224 95.79C46.8467 96.1409 49.211 96.2924 51.6153 96.2127L52.9412 97.2493C49.4666 97.361 46.032 97.034 42.6852 96.3163C42.4615 96.2765 42.2299 96.2286 41.9983 96.1648C41.0478 95.9415 40.1053 95.6863 39.1787 95.3992C37.2298 95.5587 33.6354 96.1249 31.1113 98.3817C36.407 96.396 41.3354 96.4917 41.8306 96.1887C41.2794 97.7756 38.3959 99.1473 35.0811 99.6816C32.3814 100.12 29.1943 100.168 27.4131 99.4264C30.1528 95.7501 33.7073 94.546 36.6467 94.538C33.891 93.5013 31.2391 92.1696 28.7391 90.5826C28.5873 90.4949 28.4355 90.3992 28.2838 90.2876C27.3652 89.6895 26.4706 89.0515 25.6 88.3817C23.691 87.8155 20.2084 87.0818 17.1731 88.2541C22.7803 88.3259 27.3812 90.2238 27.9483 90.1281C26.9259 91.42 23.7788 91.6512 20.488 90.9335C17.8121 90.3514 14.8009 89.2349 13.3631 87.8793C17.0374 85.4789 20.6956 85.5986 23.4353 86.6114C20.9992 84.4822 18.7707 82.0499 16.8057 79.3545C15.4239 80.1679 12.4126 79.2349 9.56106 77.3609C7.22871 75.8298 4.7606 73.6766 3.84203 71.8744C7.99553 70.9812 11.3503 72.3768 13.6107 74.2907C12.0691 71.4597 10.7912 68.3975 9.82466 65.128C8.2671 65.4071 5.71908 63.4214 3.62636 60.6064C1.92502 58.3177 0.28755 55.3831 0 53.3496C4.24935 54.0434 6.98111 56.651 8.47477 59.3145ZM27.4211 17.9985C24.322 17.3924 21.079 18.8916 19.6413 19.6572C19.17 20.2074 18.7068 20.7577 18.2675 21.3318C18.7946 21.3079 22.5487 18.9395 27.4211 17.9985ZM4.3532 38.6924C6.66957 43.1262 7.44437 47.5361 7.8118 48.509C7.85972 47.5361 7.93163 46.5632 8.03547 45.6063C7.54823 43.6924 6.49385 40.6302 4.3532 38.6924ZM11.3263 22.3925C12.0132 26.8821 11.502 30.8774 11.4461 32.2569C11.7976 31.4116 12.165 30.5823 12.5564 29.7609C12.6762 27.8391 12.6203 24.8167 11.3263 22.3925ZM13.3791 42.1534C10.7192 43.7802 9.10579 46.9939 8.37893 48.7084C8.34698 49.5059 8.33101 50.3033 8.33101 51.1008C8.87416 50.1438 10.3837 46.013 13.3791 42.1534ZM25.1766 80.9734C25.1606 84.2748 26.8061 87.4088 27.9403 89.2031C28.6352 89.6815 29.3461 90.1361 30.073 90.5667C29.1863 89.0914 26.7581 85.5747 25.1766 80.9734ZM36.3112 88.597C37.3096 91.5874 39.7059 93.8681 41.3433 95.16C42.15 95.3514 42.9648 95.5189 43.7875 95.6624C42.3657 94.546 39.1388 92.1776 36.3112 88.597ZM13.1954 56.1965C11.0867 58.86 10.5275 62.6558 10.3518 64.7611C10.5994 65.5984 10.871 66.4198 11.1586 67.2332C11.3662 65.7499 11.542 61.1168 13.1954 56.1965ZM17.1492 69.7213C16.0389 72.927 16.6699 76.6193 17.1811 78.6847C17.6843 79.3785 18.2035 80.0483 18.7387 80.7102C18.4112 79.1312 17.1731 74.809 17.1492 69.7213ZM7.30858 73.6368C12.4445 75.7181 16.1028 79.0754 16.7817 79.3306C16.1667 78.4933 15.5837 77.624 15.0245 76.7309C13.3791 75.4869 10.4317 73.6448 7.30858 73.6368ZM9.82466 65.128C9.52913 64.1391 9.27353 63.1343 9.03391 62.1136C7.89968 60.3592 5.68714 57.4485 2.69183 56.2682C6.94917 60.1837 9.32944 64.809 9.82466 65.128Z" fill="#FFC531"/>
    <path d="M144.377 43C140.818 43 137.86 41.8571 135.502 39.5714C133.167 37.2637 132 34.4066 132 31C132 27.5934 133.167 24.7473 135.502 22.4615C137.86 20.1538 140.818 19 144.377 19C146.508 19 148.48 19.4835 150.294 20.4506C152.107 21.3956 153.535 22.6923 154.578 24.3407L149.886 26.978C149.364 26.0769 148.616 25.3846 147.641 24.9011C146.667 24.3956 145.578 24.1429 144.377 24.1429C142.269 24.1429 140.58 24.7692 139.311 26.022C138.064 27.2747 137.44 28.9341 137.44 31C137.44 33.0659 138.064 34.7253 139.311 35.978C140.58 37.2308 142.269 37.8571 144.377 37.8571C145.578 37.8571 146.667 37.6044 147.641 37.0989C148.639 36.5934 149.387 35.9011 149.886 35.022L154.578 37.6593C153.558 39.3077 152.141 40.6154 150.328 41.5824C148.514 42.5275 146.531 43 144.377 43Z" fill="#333333"/>
    <path d="M173.925 30.5714C175.875 31.7802 176.849 33.5165 176.849 35.7802C176.849 37.7802 176.113 39.4066 174.639 40.6593C173.166 41.9121 171.341 42.5385 169.165 42.5385H159.168V19.4615H168.485C170.615 19.4615 172.395 20.0769 173.823 21.3077C175.274 22.5165 175.999 24.0989 175.999 26.0549C175.999 27.9011 175.308 29.4066 173.925 30.5714ZM168.485 24.4066H164.608V28.4945H168.485C169.097 28.4945 169.595 28.3077 169.981 27.9341C170.366 27.5385 170.559 27.044 170.559 26.4505C170.559 25.8571 170.366 25.3736 169.981 25C169.595 24.6044 169.097 24.4066 168.485 24.4066ZM169.165 37.5934C169.845 37.5934 170.389 37.3956 170.797 37C171.205 36.5824 171.409 36.044 171.409 35.3846C171.409 34.7253 171.205 34.1978 170.797 33.8022C170.389 33.3846 169.845 33.1758 169.165 33.1758H164.608V37.5934H169.165Z" fill="#333333"/>
    <path d="M198.104 19.4615V42.5385H192.663V34.956H190.929L185.863 42.5385H179.742L185.319 34.2967C183.868 33.7033 182.689 32.7802 181.782 31.5275C180.876 30.2527 180.422 28.8681 180.422 27.3736C180.422 25.1758 181.216 23.3077 182.802 21.7692C184.389 20.2308 186.316 19.4615 188.583 19.4615H198.104ZM188.583 30.3407H192.663V24.4066H188.583C187.835 24.4066 187.189 24.6923 186.645 25.2637C186.123 25.8352 185.863 26.5385 185.863 27.3736C185.863 28.2088 186.123 28.9121 186.645 29.4835C187.189 30.0549 187.835 30.3407 188.583 30.3407Z" fill="#333333"/>
    <path d="M220.206 19.4615V24.5385H214.085V42.5385H208.645V24.5385H202.524V19.4615H220.206Z" fill="#333333"/>
    <path d="M243.396 39.5385C240.993 41.8462 238.069 43 234.623 43C231.177 43 228.253 41.8462 225.85 39.5385C223.447 37.2308 222.246 34.3846 222.246 31C222.246 27.6154 223.447 24.7692 225.85 22.4615C228.253 20.1538 231.177 19 234.623 19C238.069 19 240.993 20.1538 243.396 22.4615C245.799 24.7692 247 27.6154 247 31C247 34.3846 245.799 37.2308 243.396 39.5385ZM229.659 35.9451C230.996 37.2198 232.651 37.8571 234.623 37.8571C236.595 37.8571 238.239 37.2198 239.553 35.9451C240.891 34.6703 241.56 33.022 241.56 31C241.56 28.978 240.891 27.3297 239.553 26.0549C238.239 24.7802 236.595 24.1429 234.623 24.1429C232.651 24.1429 230.996 24.7802 229.659 26.0549C228.344 27.3297 227.686 28.978 227.686 31C227.686 33.022 228.344 34.6703 229.659 35.9451Z" fill="#333333"/>
    <path d="M138.096 52.6H139.2V61H138.096V57.22H134.016V61H132.9V52.6H134.016V56.164H138.096V52.6ZM146.53 61L145.846 59.116H142.066L141.382 61H140.194L143.326 52.6H144.586L147.718 61H146.53ZM142.45 58.072H145.462L143.95 53.932L142.45 58.072ZM151.757 52.6C152.533 52.6 153.177 52.86 153.689 53.38C154.209 53.892 154.469 54.532 154.469 55.3C154.469 56.06 154.209 56.7 153.689 57.22C153.177 57.74 152.533 58 151.757 58H149.825V61H148.709V52.6H151.757ZM151.757 56.956C152.221 56.956 152.605 56.8 152.909 56.488C153.213 56.168 153.365 55.772 153.365 55.3C153.365 54.82 153.213 54.424 152.909 54.112C152.605 53.8 152.221 53.644 151.757 53.644H149.825V56.956H151.757ZM161.895 61H160.527L156.903 56.968V61H155.787V52.6H156.903V56.392L160.407 52.6H161.775L158.067 56.68L161.895 61ZM169.157 59.884C168.317 60.732 167.289 61.156 166.073 61.156C164.857 61.156 163.829 60.732 162.989 59.884C162.149 59.036 161.729 58.008 161.729 56.8C161.729 55.584 162.149 54.556 162.989 53.716C163.829 52.868 164.857 52.444 166.073 52.444C167.289 52.444 168.317 52.868 169.157 53.716C170.005 54.556 170.429 55.584 170.429 56.8C170.429 58.008 170.005 59.036 169.157 59.884ZM163.757 59.128C164.381 59.752 165.153 60.064 166.073 60.064C166.993 60.064 167.761 59.752 168.377 59.128C169.001 58.496 169.313 57.72 169.313 56.8C169.313 55.872 169.001 55.096 168.377 54.472C167.761 53.84 166.993 53.524 166.073 53.524C165.153 53.524 164.381 53.84 163.757 54.472C163.141 55.096 162.833 55.872 162.833 56.8C162.833 57.72 163.141 58.496 163.757 59.128ZM170.559 61V59.992C171.111 60.072 171.523 59.92 171.795 59.536C172.075 59.144 172.215 58.42 172.215 57.364V52.6H177.759V61H176.643V53.656H173.331V57.364C173.331 58.116 173.259 58.748 173.115 59.26C172.979 59.764 172.779 60.144 172.515 60.4C172.259 60.656 171.971 60.832 171.651 60.928C171.339 61.016 170.975 61.04 170.559 61ZM186.548 59.884C185.708 60.732 184.68 61.156 183.464 61.156C182.248 61.156 181.22 60.732 180.38 59.884C179.54 59.036 179.12 58.008 179.12 56.8C179.12 55.584 179.54 54.556 180.38 53.716C181.22 52.868 182.248 52.444 183.464 52.444C184.68 52.444 185.708 52.868 186.548 53.716C187.396 54.556 187.82 55.584 187.82 56.8C187.82 58.008 187.396 59.036 186.548 59.884ZM181.148 59.128C181.772 59.752 182.544 60.064 183.464 60.064C184.384 60.064 185.152 59.752 185.768 59.128C186.392 58.496 186.704 57.72 186.704 56.8C186.704 55.872 186.392 55.096 185.768 54.472C185.152 53.84 184.384 53.524 183.464 53.524C182.544 53.524 181.772 53.84 181.148 54.472C180.532 55.096 180.224 55.872 180.224 56.8C180.224 57.72 180.532 58.496 181.148 59.128ZM193.878 52.6V53.656H190.278V61H189.162V52.6H193.878ZM200.206 61V54.736L195.886 61H194.986V52.6H196.102V58.876L200.422 52.6H201.322V61H200.206ZM207.739 52.6H208.855V61H207.739V57.616C207.083 57.928 206.395 58.084 205.675 58.084C204.859 58.084 204.199 57.856 203.695 57.4C203.191 56.936 202.939 56.336 202.939 55.6V52.6H204.055V55.528C204.055 55.984 204.199 56.348 204.487 56.62C204.775 56.892 205.175 57.028 205.687 57.028C206.407 57.028 207.091 56.872 207.739 56.56V52.6ZM211.77 59.944H215.67V61H210.654V52.6H215.61V53.656H211.77V56.236H215.31V57.28H211.77V59.944ZM220.907 61.156C219.635 61.156 218.583 60.736 217.751 59.896C216.927 59.056 216.515 58.024 216.515 56.8C216.515 55.576 216.927 54.544 217.751 53.704C218.583 52.864 219.635 52.444 220.907 52.444C221.675 52.444 222.379 52.628 223.019 52.996C223.667 53.364 224.171 53.86 224.531 54.484L223.559 55.048C223.319 54.584 222.959 54.216 222.479 53.944C222.007 53.664 221.483 53.524 220.907 53.524C219.939 53.524 219.147 53.836 218.531 54.46C217.923 55.084 217.619 55.864 217.619 56.8C217.619 57.728 217.923 58.504 218.531 59.128C219.147 59.752 219.939 60.064 220.907 60.064C221.483 60.064 222.007 59.928 222.479 59.656C222.959 59.376 223.319 59.008 223.559 58.552L224.531 59.104C224.179 59.728 223.679 60.228 223.031 60.604C222.383 60.972 221.675 61.156 220.907 61.156ZM231.903 61H230.535L226.911 56.968V61H225.795V52.6H226.911V56.392L230.415 52.6H231.783L228.075 56.68L231.903 61ZM238.58 61L237.896 59.116H234.116L233.432 61H232.244L235.376 52.6H236.636L239.768 61H238.58ZM234.5 58.072H237.512L236 53.932L234.5 58.072ZM246.447 52.6V61H245.343V57.784H243.675L241.503 61H240.243L242.475 57.712C241.899 57.576 241.423 57.272 241.047 56.8C240.671 56.328 240.483 55.796 240.483 55.204C240.483 54.484 240.735 53.872 241.239 53.368C241.751 52.856 242.367 52.6 243.087 52.6H246.447ZM243.087 56.776H245.343V53.644H243.087C242.679 53.644 242.327 53.796 242.031 54.1C241.735 54.404 241.587 54.772 241.587 55.204C241.587 55.636 241.735 56.008 242.031 56.32C242.327 56.624 242.679 56.776 243.087 56.776ZM139.008 77H137.64L134.016 72.968V77H132.9V68.6H134.016V72.392L137.52 68.6H138.888L135.18 72.68L139.008 77ZM139.305 77V75.992C139.857 76.072 140.269 75.92 140.541 75.536C140.821 75.144 140.961 74.42 140.961 73.364V68.6H146.505V77H145.389V69.656H142.077V73.364C142.077 74.116 142.005 74.748 141.861 75.26C141.725 75.764 141.525 76.144 141.261 76.4C141.005 76.656 140.717 76.832 140.397 76.928C140.085 77.016 139.721 77.04 139.305 77ZM153.53 77V70.736L149.21 77H148.31V68.6H149.426V74.876L153.746 68.6H154.646V77H153.53ZM161.639 68.6H162.743V77H161.639V73.22H157.559V77H156.443V68.6H157.559V72.164H161.639V68.6ZM169.761 77V70.736L165.441 77H164.541V68.6H165.657V74.876L169.977 68.6H170.877V77H169.761ZM178.781 77H177.413L173.789 72.968V77H172.673V68.6H173.789V72.392L177.293 68.6H178.661L174.953 72.68L178.781 77ZM185.459 77L184.775 75.116H180.995L180.311 77H179.123L182.255 68.6H183.515L186.647 77H185.459ZM181.379 74.072H184.391L182.879 69.932L181.379 74.072Z" fill="#333333"/>
    <defs>
        <linearGradient id="paint0_linear_28_995" x1="29.002" y1="20" x2="85.502" y2="79" gradientUnits="userSpaceOnUse">
            <stop stop-color="white"/>
            <stop offset="1" stop-color="white" stop-opacity="0"/>
        </linearGradient>
        <linearGradient id="paint1_linear_28_995" x1="29.002" y1="20" x2="85.502" y2="79" gradientUnits="userSpaceOnUse">
            <stop stop-color="white"/>
            <stop offset="1" stop-color="white" stop-opacity="0"/>
        </linearGradient>
    </defs>
</svg>
