<svg width="120" height="100" viewBox="0 0 120 100" fill="none" xmlns="http://www.w3.org/2000/svg">
    <path d="M86.0023 40C88.2114 40 90.0023 41.7909 90.0023 44V56.5882C90.0023 58.7974 88.2114 60.5882 86.0023 60.5882L33.4141 60.5882C31.2049 60.5882 29.4141 58.7974 29.4141 56.5882L29.4141 44C29.4141 41.7909 31.2049 40 33.4141 40L86.0023 40Z" fill="#EB5351"/>
    <path d="M86.0023 40C88.2114 40 90.0023 41.7909 90.0023 44V56.5882C90.0023 58.7974 88.2114 60.5882 86.0023 60.5882L33.4141 60.5882C31.2049 60.5882 29.4141 58.7974 29.4141 56.5882L29.4141 44C29.4141 41.7909 31.2049 40 33.4141 40L86.0023 40Z" fill="url(#paint0_linear_154_1243)" fill-opacity="0.2"/>
    <path d="M49.4141 24C49.4141 21.7909 51.2049 20 53.4141 20H66.0023C68.2114 20 70.0023 21.7909 70.0023 24V76.5882C70.0023 78.7974 68.2114 80.5882 66.0023 80.5882H53.4141C51.2049 80.5882 49.4141 78.7974 49.4141 76.5882V24Z" fill="#EB5351"/>
    <path d="M49.4141 24C49.4141 21.7909 51.2049 20 53.4141 20H66.0023C68.2114 20 70.0023 21.7909 70.0023 24V76.5882C70.0023 78.7974 68.2114 80.5882 66.0023 80.5882H53.4141C51.2049 80.5882 49.4141 78.7974 49.4141 76.5882V24Z" fill="url(#paint1_linear_154_1243)" fill-opacity="0.2"/>
    <path fill-rule="evenodd" clip-rule="evenodd" d="M111.526 59.3145C111.582 59.0035 111.63 58.6845 111.686 58.3655C112.189 55.088 112.341 51.8424 112.197 48.6526C113.595 48.2857 115.152 45.7738 116.111 42.7275C116.901 40.1916 117.453 37.1294 117.109 35.2952C113.762 37.257 112.173 40.2953 111.622 43.0226C111.031 39.4021 110.048 35.9093 108.706 32.5998C109.809 31.6908 110.416 28.9236 110.344 25.8933C110.28 23.3095 109.841 20.3271 108.962 18.78C106.566 21.6987 106.038 24.9602 106.342 27.6158C104.281 23.8518 101.733 20.4148 98.7619 17.4243C98.011 15.7656 96.781 12.512 97.2842 9.38601C98.2107 14.6332 100.463 18.6444 100.471 19.1867C101.366 18.0304 101.07 15.0479 99.976 12.0734C99.0894 9.65714 97.7155 7.00165 96.3896 5.86926C94.9438 9.84058 95.7186 13.3812 97.0685 15.8055C95.503 14.386 93.8336 13.0782 92.0763 11.9059C92.0923 11.882 92.1083 11.8581 92.1243 11.8262C92.0923 11.8342 92.0523 11.8422 91.9964 11.8502C91.8766 11.7704 91.7648 11.6906 91.645 11.6109L91.8926 11.8502C90.8942 11.8581 87.196 11.276 83.0265 12.0415C86.2774 10.0001 90.7824 10.8932 91.1737 10.9171C90.5587 10.4785 89.728 10.0878 88.7535 9.84056C87.795 8.89957 85.1592 6.17227 84.6 2.79904C86.9883 7.11326 90.1833 9.88839 90.351 10.3669C90.7903 9.03511 89.6402 6.49923 87.787 4.25041C86.2774 2.41627 84.2646 0.550242 82.7549 0C82.6431 5.11965 85.5186 8.35728 87.9308 9.6651C85.5346 9.28232 82.5233 9.77678 79.8475 12.3446C81.2213 13.2218 83.8492 13.6524 86.1256 13.6923C88.8014 13.7401 91.2536 13.1021 92.0284 11.9697L92.8511 12.7513C94.5764 13.9794 96.2059 15.343 97.7315 16.8263C97.9152 17.0814 98.0989 17.3127 98.2826 17.528C96.0222 16.2122 92.8431 15.5344 89.2967 17.0575C90.367 18.469 92.8511 19.9204 95.1116 20.8534C97.8832 21.9937 100.671 22.2888 101.741 21.3239C103.602 23.7242 105.232 26.3319 106.606 29.0991C106.717 29.5536 106.861 29.9842 107.013 30.375C105.32 28.3175 102.556 26.5233 98.7619 26.6509C99.313 28.3654 101.174 30.6302 102.995 32.3208C105.232 34.4021 107.74 35.694 109.05 35.1836C108.579 35.0002 105.815 31.3957 101.534 28.7242C104.76 29.3144 107.412 32.1134 108.427 33.2697C109.92 37.1613 110.927 41.3001 111.382 45.5744C111.382 45.6621 111.39 45.7419 111.39 45.8296C110.416 43.19 108.331 40.3989 104.601 39.0831C104.577 40.9572 105.639 43.8599 106.845 46.1964C108.291 48.9875 110.232 51.1406 111.662 51.2603C111.638 53.5729 111.462 55.9094 111.103 58.2539C110.919 59.4501 110.695 60.6224 110.432 61.7787C110.328 58.6925 109.138 55.0402 105.807 52.2331C105.128 54.147 105.2 57.5681 105.631 60.4628C106.134 63.8361 107.332 66.7787 108.722 67.5682C107.604 70.6224 106.182 73.5012 104.521 76.1647C105.368 73.246 105.376 69.4342 103.171 65.6304C101.917 67.1854 100.902 70.4231 100.383 73.3019C99.7842 76.6193 99.96 79.7851 100.982 81.069C99.0254 83.4295 96.8449 85.5507 94.4886 87.4167C96.126 84.9925 97.2522 81.4996 96.4295 77.2492C94.7601 78.246 92.7712 80.9175 91.3654 83.4295C89.7759 86.2764 88.9293 89.2589 89.4325 90.8617C86.9404 92.3051 84.3045 93.4854 81.5648 94.3626C83.7933 92.664 85.8381 89.849 86.3972 85.6943C84.5042 86.0212 81.7884 87.7995 79.6638 89.6417C77.3154 91.6831 75.5981 94.1074 75.4783 95.79C73.1539 96.1409 70.7896 96.2924 68.3854 96.2127L67.0595 97.2493C70.534 97.361 73.9687 97.034 77.3154 96.3163C77.5391 96.2765 77.7707 96.2286 78.0024 96.1648C78.9529 95.9415 79.8954 95.6863 80.8219 95.3992C82.7709 95.5587 86.3653 96.1249 88.8893 98.3817C83.5936 96.396 78.6653 96.4917 78.1701 96.1887C78.7212 97.7756 81.6047 99.1473 84.9195 99.6816C87.6193 100.12 90.8063 100.168 92.5875 99.4264C89.8478 95.7501 86.2934 94.546 83.354 94.538C86.1097 93.5013 88.7615 92.1696 91.2616 90.5826C91.4134 90.4949 91.5651 90.3992 91.7169 90.2876C92.6355 89.6895 93.53 89.0515 94.4007 88.3817C96.3097 87.8155 99.7923 87.0818 102.828 88.2541C97.2203 88.3259 92.6195 90.2238 92.0523 90.1281C93.0747 91.42 96.2218 91.6512 99.5127 90.9335C102.189 90.3514 105.2 89.2349 106.638 87.8793C102.963 85.4789 99.305 85.5986 96.5653 86.6114C99.0015 84.4822 101.23 82.0499 103.195 79.3545C104.577 80.1679 107.588 79.2349 110.44 77.3609C112.772 75.8298 115.24 73.6766 116.159 71.8744C112.005 70.9812 108.65 72.3768 106.39 74.2907C107.932 71.4597 109.21 68.3975 110.176 65.128C111.734 65.4071 114.282 63.4214 116.374 60.6064C118.076 58.3177 119.713 55.3831 120.001 53.3496C115.751 54.0434 113.02 56.651 111.526 59.3145ZM92.5796 17.9985C95.6787 17.3924 98.9216 18.8916 100.359 19.6572C100.831 20.2074 101.294 20.7577 101.733 21.3318C101.206 21.3079 97.4519 18.9395 92.5796 17.9985ZM115.647 38.6924C113.331 43.1262 112.556 47.5361 112.189 48.509C112.141 47.5361 112.069 46.5632 111.965 45.6063C112.452 43.6924 113.507 40.6302 115.647 38.6924ZM108.674 22.3925C107.987 26.8821 108.499 30.8774 108.555 32.2569C108.203 31.4116 107.836 30.5823 107.444 29.7609C107.324 27.8391 107.38 24.8167 108.674 22.3925ZM106.622 42.1534C109.281 43.7802 110.895 46.9939 111.622 48.7084C111.654 49.5059 111.67 50.3033 111.67 51.1008C111.126 50.1438 109.617 46.013 106.622 42.1534ZM94.824 80.9734C94.84 84.2748 93.1946 87.4088 92.0603 89.2031C91.3654 89.6815 90.6546 90.1361 89.9277 90.5667C90.8143 89.0914 93.2425 85.5747 94.824 80.9734ZM83.6895 88.597C82.691 91.5874 80.2948 93.8681 78.6573 95.16C77.8506 95.3514 77.0359 95.5189 76.2132 95.6624C77.6349 94.546 80.8619 92.1776 83.6895 88.597ZM106.805 56.1965C108.914 58.86 109.473 62.6558 109.649 64.7611C109.401 65.5984 109.13 66.4198 108.842 67.2332C108.634 65.7499 108.459 61.1168 106.805 56.1965ZM102.851 69.7213C103.962 72.927 103.331 76.6193 102.82 78.6847C102.316 79.3785 101.797 80.0483 101.262 80.7102C101.589 79.1312 102.827 74.809 102.851 69.7213ZM112.692 73.6368C107.556 75.7181 103.898 79.0754 103.219 79.3306C103.834 78.4933 104.417 77.624 104.976 76.7309C106.622 75.4869 109.569 73.6448 112.692 73.6368ZM110.176 65.128C110.472 64.1391 110.727 63.1343 110.967 62.1136C112.101 60.3592 114.313 57.4485 117.309 56.2682C113.051 60.1837 110.671 64.809 110.176 65.128Z" fill="#FFC531"/>
    <path fill-rule="evenodd" clip-rule="evenodd" d="M8.47477 59.3145C8.41886 59.0035 8.37093 58.6845 8.31501 58.3655C7.8118 55.088 7.66003 51.8424 7.8038 48.6526C6.40599 48.2857 4.84846 45.7738 3.88996 42.7275C3.09919 40.1916 2.54806 37.1294 2.89152 35.2952C6.23828 37.257 7.82779 40.2953 8.37893 43.0226C8.97 39.4021 9.95244 35.9093 11.2943 32.5998C10.1921 31.6908 9.58502 28.9236 9.65691 25.8933C9.72081 23.3095 10.1601 20.3271 11.0387 18.78C13.435 21.6987 13.9622 24.9602 13.6587 27.6158C15.7194 23.8518 18.2674 20.4148 21.2388 17.4243C21.9896 15.7656 23.2197 12.512 22.7165 9.38601C21.7899 14.6332 19.5374 18.6444 19.5294 19.1867C18.6348 18.0304 18.9304 15.0479 20.0247 12.0734C20.9113 9.65714 22.2852 7.00165 23.6111 5.86926C25.0568 9.84058 24.282 13.3812 22.9321 15.8055C24.4977 14.386 26.1671 13.0782 27.9243 11.9059C27.9083 11.882 27.8924 11.8581 27.8764 11.8262C27.9083 11.8342 27.9483 11.8422 28.0042 11.8502C28.124 11.7704 28.2358 11.6906 28.3556 11.6109L28.108 11.8502C29.1065 11.8581 32.8047 11.276 36.9742 12.0415C33.7233 10.0001 29.2183 10.8932 28.8269 10.9171C29.4419 10.4785 30.2727 10.0878 31.2471 9.84056C32.2056 8.89957 34.8415 6.17227 35.4006 2.79904C33.0123 7.11326 29.8174 9.88839 29.6496 10.3669C29.2103 9.03511 30.3605 6.49923 32.2136 4.25041C33.7232 2.41627 35.7361 0.550242 37.2457 0C37.3575 5.11965 34.4821 8.35728 32.0698 9.6651C34.4661 9.28232 37.4774 9.77678 40.1532 12.3446C38.7793 13.2218 36.1515 13.6524 33.875 13.6923C31.1992 13.7401 28.747 13.1021 27.9722 11.9697L27.1496 12.7513C25.4243 13.9794 23.7948 15.343 22.2692 16.8263C22.0854 17.0814 21.9017 17.3127 21.718 17.528C23.9785 16.2122 27.1575 15.5344 30.704 17.0575C29.6336 18.469 27.1495 19.9204 24.8891 20.8534C22.1174 21.9937 19.3298 22.2888 18.2595 21.3239C16.3984 23.7242 14.7689 26.3319 13.3951 29.0991C13.2832 29.5536 13.1394 29.9842 12.9877 30.375C14.681 28.3175 17.4447 26.5233 21.2388 26.6509C20.6876 28.3654 18.8266 30.6302 17.0054 32.3208C14.7689 34.4021 12.2608 35.694 10.9509 35.1836C11.4221 35.0002 14.1858 31.3957 18.4671 28.7242C15.2402 29.3144 12.5883 32.1134 11.5739 33.2697C10.0803 37.1613 9.07383 41.3001 8.61854 45.5744C8.61854 45.6621 8.61055 45.7419 8.61055 45.8296C9.58502 43.19 11.6698 40.3989 15.3999 39.0831C15.4239 40.9572 14.3616 43.8599 13.1554 46.1964C11.7097 48.9875 9.76871 51.1406 8.33895 51.2603C8.36292 53.5729 8.53865 55.9094 8.89809 58.2539C9.0818 59.4501 9.30547 60.6224 9.56906 61.7787C9.6729 58.6925 10.863 55.0402 14.1938 52.2331C14.8727 54.147 14.8009 57.5681 14.3696 60.4628C13.8663 63.8361 12.6682 66.7787 11.2784 67.5682C12.3966 70.6224 13.8184 73.5012 15.4798 76.1647C14.6331 73.246 14.6251 69.4342 16.8297 65.6304C18.0837 67.1854 19.0982 70.4231 19.6173 73.3019C20.2164 76.6193 20.0407 79.7851 19.0183 81.069C20.9752 83.4295 23.1558 85.5507 25.5121 87.4167C23.8746 84.9925 22.7484 81.4996 23.5711 77.2492C25.2405 78.246 27.2294 80.9175 28.6352 83.4295C30.2247 86.2764 31.0714 89.2589 30.5682 90.8617C33.0603 92.3051 35.6962 93.4854 38.4359 94.3626C36.2074 92.664 34.1625 89.849 33.6034 85.6943C35.4965 86.0212 38.2122 87.7995 40.3369 89.6417C42.6852 91.6831 44.4026 94.1074 44.5224 95.79C46.8467 96.1409 49.211 96.2924 51.6153 96.2127L52.9412 97.2493C49.4666 97.361 46.032 97.034 42.6852 96.3163C42.4615 96.2765 42.2299 96.2286 41.9983 96.1648C41.0478 95.9415 40.1053 95.6863 39.1787 95.3992C37.2298 95.5587 33.6354 96.1249 31.1113 98.3817C36.407 96.396 41.3354 96.4917 41.8306 96.1887C41.2794 97.7756 38.3959 99.1473 35.0811 99.6816C32.3814 100.12 29.1943 100.168 27.4131 99.4264C30.1528 95.7501 33.7073 94.546 36.6467 94.538C33.891 93.5013 31.2391 92.1696 28.7391 90.5826C28.5873 90.4949 28.4355 90.3992 28.2838 90.2876C27.3652 89.6895 26.4706 89.0515 25.6 88.3817C23.691 87.8155 20.2084 87.0818 17.1731 88.2541C22.7803 88.3259 27.3812 90.2238 27.9483 90.1281C26.9259 91.42 23.7788 91.6512 20.488 90.9335C17.8121 90.3514 14.8009 89.2349 13.3631 87.8793C17.0374 85.4789 20.6956 85.5986 23.4353 86.6114C20.9992 84.4822 18.7707 82.0499 16.8057 79.3545C15.4239 80.1679 12.4126 79.2349 9.56106 77.3609C7.22871 75.8298 4.7606 73.6766 3.84203 71.8744C7.99553 70.9812 11.3503 72.3768 13.6107 74.2907C12.0691 71.4597 10.7912 68.3975 9.82466 65.128C8.2671 65.4071 5.71908 63.4214 3.62636 60.6064C1.92502 58.3177 0.28755 55.3831 0 53.3496C4.24935 54.0434 6.98111 56.651 8.47477 59.3145ZM27.4211 17.9985C24.322 17.3924 21.079 18.8916 19.6413 19.6572C19.17 20.2074 18.7068 20.7577 18.2675 21.3318C18.7946 21.3079 22.5487 18.9395 27.4211 17.9985ZM4.3532 38.6924C6.66957 43.1262 7.44437 47.5361 7.8118 48.509C7.85972 47.5361 7.93163 46.5632 8.03547 45.6063C7.54823 43.6924 6.49385 40.6302 4.3532 38.6924ZM11.3263 22.3925C12.0132 26.8821 11.502 30.8774 11.4461 32.2569C11.7976 31.4116 12.165 30.5823 12.5564 29.7609C12.6762 27.8391 12.6203 24.8167 11.3263 22.3925ZM13.3791 42.1534C10.7192 43.7802 9.10579 46.9939 8.37893 48.7084C8.34698 49.5059 8.33101 50.3033 8.33101 51.1008C8.87416 50.1438 10.3837 46.013 13.3791 42.1534ZM25.1766 80.9734C25.1606 84.2748 26.8061 87.4088 27.9403 89.2031C28.6352 89.6815 29.3461 90.1361 30.073 90.5667C29.1863 89.0914 26.7581 85.5747 25.1766 80.9734ZM36.3112 88.597C37.3096 91.5874 39.7059 93.8681 41.3433 95.16C42.15 95.3514 42.9648 95.5189 43.7875 95.6624C42.3657 94.546 39.1388 92.1776 36.3112 88.597ZM13.1954 56.1965C11.0867 58.86 10.5275 62.6558 10.3518 64.7611C10.5994 65.5984 10.871 66.4198 11.1586 67.2332C11.3662 65.7499 11.542 61.1168 13.1954 56.1965ZM17.1492 69.7213C16.0389 72.927 16.6699 76.6193 17.1811 78.6847C17.6843 79.3785 18.2035 80.0483 18.7387 80.7102C18.4112 79.1312 17.1731 74.809 17.1492 69.7213ZM7.30858 73.6368C12.4445 75.7181 16.1028 79.0754 16.7817 79.3306C16.1667 78.4933 15.5837 77.624 15.0245 76.7309C13.3791 75.4869 10.4317 73.6448 7.30858 73.6368ZM9.82466 65.128C9.52913 64.1391 9.27353 63.1343 9.03391 62.1136C7.89968 60.3592 5.68714 57.4485 2.69183 56.2682C6.94917 60.1837 9.32944 64.809 9.82466 65.128Z" fill="#FFC531"/>
    <defs>
        <linearGradient id="paint0_linear_154_1243" x1="29.002" y1="20" x2="85.502" y2="79" gradientUnits="userSpaceOnUse">
            <stop stop-color="white"/>
            <stop offset="1" stop-color="white" stop-opacity="0"/>
        </linearGradient>
        <linearGradient id="paint1_linear_154_1243" x1="29.002" y1="20" x2="85.502" y2="79" gradientUnits="userSpaceOnUse">
            <stop stop-color="white"/>
            <stop offset="1" stop-color="white" stop-opacity="0"/>
        </linearGradient>
    </defs>
</svg>
