<svg width="40" height="48" viewBox="0 0 40 48" fill="none" xmlns="http://www.w3.org/2000/svg">
    <path fill-rule="evenodd" clip-rule="evenodd" d="M20 48C20 48 40 34.9091 40 19.6364C40 14.4285 37.8929 9.43389 34.1421 5.75136C30.3914 2.06883 25.3043 0 20 0C14.6957 0 9.60859 2.06883 5.85786 5.75136C2.10714 9.43389 7.90407e-08 14.4285 0 19.6364C0 34.9091 20 48 20 48ZM20 26.1818C23.6819 26.1818 26.6667 23.2513 26.6667 19.6364C26.6667 16.0214 23.6819 13.0909 20 13.0909C16.3181 13.0909 13.3333 16.0214 13.3333 19.6364C13.3333 23.2513 16.3181 26.1818 20 26.1818Z" fill="#EB5351"/>
    <path fill-rule="evenodd" clip-rule="evenodd" d="M20 48C20 48 40 34.9091 40 19.6364C40 14.4285 37.8929 9.43389 34.1421 5.75136C30.3914 2.06883 25.3043 0 20 0C14.6957 0 9.60859 2.06883 5.85786 5.75136C2.10714 9.43389 7.90407e-08 14.4285 0 19.6364C0 34.9091 20 48 20 48ZM20 26.1818C23.6819 26.1818 26.6667 23.2513 26.6667 19.6364C26.6667 16.0214 23.6819 13.0909 20 13.0909C16.3181 13.0909 13.3333 16.0214 13.3333 19.6364C13.3333 23.2513 16.3181 26.1818 20 26.1818Z" fill="url(#paint0_linear_14_178)" fill-opacity="0.2"/>
    <defs>
        <linearGradient id="paint0_linear_14_178" x1="-0.272072" y1="2.22347e-08" x2="44.1015" y2="38.6142" gradientUnits="userSpaceOnUse">
            <stop stop-color="white"/>
            <stop offset="1" stop-color="white" stop-opacity="0"/>
        </linearGradient>
    </defs>
</svg>
