<svg width="90" height="90" viewBox="0 0 90 90" fill="none" xmlns="http://www.w3.org/2000/svg">
    <rect width="90" height="90" rx="24" fill="white"/>
    <path d="M65 57.3895V67C65 68.1046 64.1046 69 63 69H43.1774H27C25.8954 69 25 68.1046 25 67V23C25 21.8954 25.8954 21 27 21H50.3704C50.8997 21 51.4073 21.2098 51.7822 21.5834L59.6487 29.4229C60.0253 29.7982 60.2369 30.3079 60.2369 30.8395V46.1867C60.9174 47.0908 62.2783 49.3544 62.2783 51.1756V55.3895H63C64.1046 55.3895 65 56.2849 65 57.3895Z" fill="white"/>
    <path d="M43.1774 69V57.3895C43.1774 56.2849 44.0728 55.3895 45.1774 55.3895H45.9478M43.1774 69H63C64.1046 69 65 68.1046 65 67V57.3895C65 56.2849 64.1046 55.3895 63 55.3895H62.2783M43.1774 69H27C25.8954 69 25 68.1046 25 67V23C25 21.8954 25.8954 21 27 21H50.3704C50.8997 21 51.4073 21.2098 51.7822 21.5834L59.6487 29.4229C60.0253 29.7982 60.2369 30.3079 60.2369 30.8395V46.1867M60.2369 46.1867C59.5079 45.331 57.2527 43.6196 54.0644 43.6196C50.079 43.6196 45.9478 46.8648 45.9478 50.3037C45.9478 53.0549 45.9478 54.8406 45.9478 55.3895M60.2369 46.1867C60.9174 47.0908 62.2783 49.3544 62.2783 51.1756C62.2783 52.9968 62.2783 54.7437 62.2783 55.3895M45.9478 55.3895H62.2783M54.0644 65.3673V60.8143M30.277 26.7639H45.9271M30.277 31.445H45.9271M30.277 36.0293H45.9271" stroke="#EB5553" stroke-width="2" stroke-linecap="round" stroke-linejoin="round"/>
</svg>
