<svg width="90" height="90" viewBox="0 0 90 90" fill="none" xmlns="http://www.w3.org/2000/svg">
    <rect width="90" height="90" rx="24" fill="white"/>
    <path d="M58.6084 24.5084C64.2661 30.301 60.9658 35.8506 58.6084 37.9014L47.9282 48.3849L36.2376 59.8601C34.3614 61.7018 27.8666 64.5926 23.1038 58.7717C19.2936 54.1149 21.5162 49.1647 23.1038 47.2717C26.0534 44.3551 30.6036 39.8632 34.8906 35.6462C39.5306 31.0821 43.8623 26.8399 45.5227 25.2656C49.5158 21.4796 54.1343 20.6751 58.6084 24.5084Z" fill="white"/>
    <path d="M69 57.4939C69 63.2962 64.2183 68 58.3198 68C52.4212 68 47.6395 63.2962 47.6395 57.4939C47.6395 51.6915 52.4212 46.9878 58.3198 46.9878C64.2183 46.9878 69 51.6915 69 57.4939Z" fill="white"/>
    <path d="M34.8906 35.6462C39.5306 31.0821 43.8623 26.8399 45.5227 25.2656C49.5158 21.4796 54.1343 20.6751 58.6084 24.5084C64.2661 30.301 60.9658 35.8506 58.6084 37.9014L47.9282 48.3849M34.8906 35.6462C30.6036 39.8632 26.0534 44.3551 23.1038 47.2717C21.5162 49.1647 19.2936 54.1149 23.1038 58.7717C27.8666 64.5926 34.3614 61.7018 36.2376 59.8601L47.9282 48.3849M34.8906 35.6462L47.9282 48.3849M58.3198 68C64.2183 68 69 63.2963 69 57.4939C69 51.6915 64.2183 46.9878 58.3198 46.9878M58.3198 68C52.4212 68 47.6395 63.2963 47.6395 57.4939C47.6395 51.6915 52.4212 46.9878 58.3198 46.9878M58.3198 68V46.9878" stroke="#EB5553" stroke-width="2" stroke-linecap="round" stroke-linejoin="round"/>
</svg>
