<svg width="90" height="90" viewBox="0 0 90 90" fill="none" xmlns="http://www.w3.org/2000/svg">
    <rect width="90" height="90" rx="24" fill="white"/>
    <path d="M59.1006 47.136C48.5316 48.2629 38.6307 47.9358 31.1891 47.1889L32.7623 42.5143L36.7907 30.5445C37.1771 30.0297 38.1815 29 39.1087 29C40.2676 29 44.1791 30.1584 44.9034 30.1584C45.6278 30.1584 50.3119 29 50.8913 29C51.4708 29 52.8712 29.5792 53.4024 30.5445L57.5133 42.5143L59.1006 47.136Z" fill="white"/>
    <path d="M42.4406 56.463C42.4406 58.9687 40.4084 61 37.9014 61C35.3945 61 33.3622 58.9687 33.3622 56.463C33.3622 53.9574 35.3945 51.9261 37.9014 51.9261C40.0598 51.9261 41.8663 53.4317 42.3269 55.4495C42.4013 55.7754 42.4406 56.1146 42.4406 56.463Z" fill="white"/>
    <path d="M56.5412 56.463C56.5412 58.9687 54.509 61 52.002 61C49.4951 61 47.4628 58.9687 47.4628 56.463C47.4628 56.1146 47.5021 55.7754 47.5765 55.4495C48.0372 53.4317 49.8437 51.9261 52.002 51.9261C54.509 51.9261 56.5412 53.9574 56.5412 56.463Z" fill="white"/>
    <path d="M59.1006 47.136C62.3545 46.7891 65.6717 46.3044 69 45.6516M59.1006 47.136C48.5316 48.2629 38.6307 47.9358 31.1891 47.1889M59.1006 47.136L57.5133 42.5143M21 45.6516C23.3112 46.1694 26.8278 46.7512 31.1891 47.1889M31.1891 47.1889L32.7623 42.5143M32.7623 42.5143L36.7907 30.5445C37.1771 30.0297 38.1815 29 39.1087 29C40.2676 29 44.1791 30.1584 44.9034 30.1584C45.6278 30.1584 50.3119 29 50.8913 29C51.4708 29 52.8712 29.5792 53.4024 30.5445L57.5133 42.5143M32.7623 42.5143C37.2482 43.3027 48.4785 44.4063 57.5133 42.5143M42.3269 55.4495C41.8663 53.4317 40.0598 51.9261 37.9014 51.9261C35.3945 51.9261 33.3622 53.9574 33.3622 56.463C33.3622 58.9687 35.3945 61 37.9014 61C40.4084 61 42.4406 58.9687 42.4406 56.463C42.4406 56.1146 42.4013 55.7754 42.3269 55.4495ZM42.3269 55.4495C42.7351 54.999 43.841 54.098 45 54.098C46.159 54.098 47.2005 54.999 47.5765 55.4495M47.5765 55.4495C47.5021 55.7754 47.4628 56.1146 47.4628 56.463C47.4628 58.9687 49.4951 61 52.002 61C54.509 61 56.5412 58.9687 56.5412 56.463C56.5412 53.9574 54.509 51.9261 52.002 51.9261C49.8437 51.9261 48.0372 53.4317 47.5765 55.4495Z" stroke="#EB5553" stroke-width="2"/>
</svg>
