<svg width="90" height="90" viewBox="0 0 90 90" fill="none" xmlns="http://www.w3.org/2000/svg">
    <rect width="90" height="90" rx="24" fill="white"/>
    <path d="M51.3966 22.3494C53.1467 23.1976 53.5526 25.0482 53.5367 25.8675V32.9036C54.5355 32.9357 56.533 33.5494 56.533 35.747C56.533 37.9446 54.5355 38.3012 53.5367 38.2048V38.494C53.3836 40.3344 52.3725 43.4451 49.6844 45.196V48.3142C49.6844 49.1352 50.186 49.8725 50.9487 50.1764C51.8393 50.5312 52.9266 50.967 54.0869 51.4364C56.2098 52.2951 58.5773 53.2664 60.4328 54.0602C63.3244 55.7952 64.0156 58.8313 63.9997 60.1325V67C63.9997 68.1046 63.1043 69 61.9997 69H28C26.8954 69 26 68.1046 26 67V60.1325C26 57.411 27.9661 55.1591 29.1225 54.2206C29.2576 54.111 29.4111 54.0279 29.5729 53.9642L35.9874 51.4364L39.1912 50.1739C39.9556 49.8727 40.458 49.1347 40.458 48.3131V45.3159C37.6271 43.5904 36.5722 40.3772 36.4154 38.494V38.2048C34.4655 38.2048 33.3241 37.1446 33.3241 35.747C33.3241 33.3566 35.385 32.8554 36.4154 32.9036V25.8675C36.4154 25.1124 36.9196 23.3518 38.9361 22.3494C40.7156 21.4648 41.0951 21.2407 41.0617 21.2334C41.0503 21.236 41.0393 21.2385 41.0287 21.241C41.0455 21.2353 41.0572 21.2324 41.0617 21.2334C41.4235 21.151 42.1497 21 42.4079 21H47.8772C48.4099 21 48.8918 21.1606 49.0662 21.241C49.1137 21.257 49.6464 21.5012 51.3966 22.3494Z" fill="white"/>
    <path d="M47.2827 28.4217C47.7424 28.4217 48.115 28.0491 48.115 27.5894V26.4588C48.115 25.9991 47.7424 25.6265 47.2827 25.6265V25.6265C46.823 25.6265 46.4504 25.2484 46.4504 24.7887V24.7887C46.4504 24.3229 46.0728 23.9398 45.607 23.9398H44.5354C44.0696 23.9398 43.692 24.3229 43.692 24.7887V24.7887C43.692 25.2484 43.3194 25.6265 42.8597 25.6265V25.6265C42.4 25.6265 42.0274 25.9991 42.0274 26.4588V27.5894C42.0274 28.0491 42.4 28.4217 42.8597 28.4217V28.4217C43.3194 28.4217 43.692 28.7998 43.692 29.2595V29.2595C43.692 29.7253 44.0696 30.1084 44.5354 30.1084H45.607C46.0728 30.1084 46.4504 29.7253 46.4504 29.2595V29.2595C46.4504 28.7998 46.823 28.4217 47.2827 28.4217V28.4217Z" fill="white"/>
    <path d="M41.0617 21.2334C41.0951 21.2407 40.7156 21.4648 38.9361 22.3494C36.9196 23.3518 36.4154 25.1124 36.4154 25.8675V32.9036M41.0617 21.2334C41.0572 21.2324 41.0455 21.2353 41.0287 21.241C41.0393 21.2385 41.0503 21.236 41.0617 21.2334ZM41.0617 21.2334C41.4235 21.151 42.1497 21 42.4079 21H47.8772C48.4099 21 48.8918 21.1606 49.0662 21.241C49.1137 21.257 49.6464 21.5012 51.3966 22.3494C53.1467 23.1976 53.5526 25.0482 53.5367 25.8675V32.9036M36.4154 32.9036H53.5367M36.4154 32.9036C35.385 32.8554 33.3241 33.3566 33.3241 35.747C33.3241 37.1446 34.4655 38.2048 36.4154 38.2048M36.4154 32.9036V38.2048M53.5367 32.9036C54.5355 32.9357 56.533 33.5494 56.533 35.747C56.533 37.9446 54.5355 38.3012 53.5367 38.2048M53.5367 32.9036V38.2048M36.4154 38.2048V38.494C36.5722 40.3772 37.6271 43.5904 40.458 45.3159M53.5367 38.2048V38.494C53.3836 40.3344 52.3725 43.4451 49.6844 45.196M40.458 45.3159C41.6356 46.0337 43.1206 46.494 44.9761 46.494C46.9329 46.494 48.4777 45.982 49.6844 45.196M40.458 45.3159V48.3131C40.458 49.1347 39.9556 49.8727 39.1912 50.1739L35.9874 51.4364M49.6844 45.196V48.3142C49.6844 49.1352 50.186 49.8725 50.9487 50.1764C51.8393 50.5312 52.9266 50.967 54.0869 51.4364M35.9874 51.4364L29.5729 53.9642C29.4111 54.0279 29.2576 54.111 29.1225 54.2206C27.9661 55.1591 26 57.411 26 60.1325V67C26 68.1046 26.8954 69 28 69H61.9997C63.1043 69 63.9997 68.1046 63.9997 67V60.1325C64.0156 58.8313 63.3244 55.7952 60.4328 54.0602C58.5773 53.2664 56.2098 52.2951 54.0869 51.4364M35.9874 51.4364C37.1922 52.7929 40.6767 55.506 44.9761 55.506C49.2754 55.506 52.8414 52.7929 54.0869 51.4364M43.692 29.2595V29.2595C43.692 29.7253 44.0696 30.1084 44.5354 30.1084H45.607C46.0728 30.1084 46.4504 29.7253 46.4504 29.2595V29.2595C46.4504 28.7998 46.823 28.4217 47.2827 28.4217V28.4217C47.7424 28.4217 48.115 28.0491 48.115 27.5894V26.4588C48.115 25.9991 47.7424 25.6265 47.2827 25.6265V25.6265C46.823 25.6265 46.4504 25.2484 46.4504 24.7887V24.7887C46.4504 24.3229 46.0728 23.9398 45.607 23.9398H44.5354C44.0696 23.9398 43.692 24.3229 43.692 24.7887V24.7887C43.692 25.2484 43.3194 25.6265 42.8597 25.6265V25.6265C42.4 25.6265 42.0274 25.9991 42.0274 26.4588V27.5894C42.0274 28.0491 42.4 28.4217 42.8597 28.4217V28.4217C43.3194 28.4217 43.692 28.7998 43.692 29.2595Z" stroke="#EB5553" stroke-width="2"/>
</svg>
