<svg width="90" height="90" viewBox="0 0 90 90" fill="none" xmlns="http://www.w3.org/2000/svg">
    <rect width="90" height="90" rx="24" fill="white"/>
    <path d="M48.9784 24.8632C48.9784 22.7296 47.1747 21 44.9496 21C42.7246 21 40.9209 22.7296 40.9209 24.8632C40.9209 26.9968 42.7246 28.7264 44.9496 28.7264C47.1747 28.7264 48.9784 26.9968 48.9784 24.8632Z" fill="white"/>
    <path d="M66 48.8632C66 59.9844 56.598 69 45 69C33.402 69 24 59.9844 24 48.8632C24 41.4597 28.1667 34.9893 34.3741 31.4907C37.4912 29.7339 41.1229 28.7264 45 28.7264C48.8771 28.7264 52.5088 29.7339 55.6259 31.4907C61.8333 34.9893 66 41.4597 66 48.8632Z" fill="white"/>
    <path d="M47.3669 48.8149C47.3669 50.095 46.2847 51.1328 44.9496 51.1328C43.6146 51.1328 42.5324 50.095 42.5324 48.8149C42.5324 47.5347 43.6146 46.497 44.9496 46.497C46.2847 46.497 47.3669 47.5347 47.3669 48.8149Z" fill="white"/>
    <path d="M55.6259 31.4907C52.5088 29.7339 48.8771 28.7264 45 28.7264C41.1229 28.7264 37.4912 29.7339 34.3741 31.4907M55.6259 31.4907C61.8333 34.9893 66 41.4597 66 48.8632C66 59.9844 56.598 69 45 69C33.402 69 24 59.9844 24 48.8632C24 41.4597 28.1667 34.9893 34.3741 31.4907M55.6259 31.4907L57.5396 28.002M57.5396 28.002L60.2086 29.5956M57.5396 28.002L54.8705 26.4567M34.3741 31.4907L32.5108 28.34M32.5108 28.34L29.6906 29.7887M32.5108 28.34L35.6331 26.7465M44.9496 51.1328C46.2847 51.1328 47.3669 50.095 47.3669 48.8149C47.3669 47.5347 46.2847 46.497 44.9496 46.497M44.9496 51.1328C43.6146 51.1328 42.5324 50.095 42.5324 48.8149C42.5324 47.5347 43.6146 46.497 44.9496 46.497M44.9496 51.1328V55.9135M44.9496 46.497V34.9557M48.9784 24.8632C48.9784 22.7296 47.1747 21 44.9496 21C42.7246 21 40.9209 22.7296 40.9209 24.8632C40.9209 26.9968 42.7246 28.7264 44.9496 28.7264C47.1747 28.7264 48.9784 26.9968 48.9784 24.8632Z" stroke="#EB5553" stroke-width="2" stroke-linecap="round" stroke-linejoin="round"/>
</svg>
