<svg width="90" height="90" viewBox="0 0 90 90" fill="none" xmlns="http://www.w3.org/2000/svg">
    <rect width="90" height="90" rx="24" fill="white"/>
    <path d="M64.8563 31.5152C67.4715 35.3586 69 40.0008 69 45C69 58.2548 58.2548 69 45 69C31.7452 69 21 58.2548 21 45C21 31.7452 31.7452 21 45 21C51.9144 21 58.1459 23.924 62.5254 28.6029M62.5254 28.6029V24.359M62.5254 28.6029H58.1927M54.5903 55.2718V38.8624C54.5903 37.8527 53.2643 37.4792 52.7373 38.3404L47.5378 46.8371C47.1301 47.5034 47.6096 48.359 48.3908 48.359H58.1927M42.9067 55.2718H35.1959C34.3118 55.2718 33.8626 54.2088 34.4787 53.5749L39.5477 48.359C40.6673 47.1582 42.9067 43.8706 42.9067 40.3266C42.9067 35.8966 39.645 35.069 37.6491 35.069C35.6531 35.069 32.8296 36.7728 32.8296 40.3266" stroke="#EB5553" stroke-width="2" stroke-linecap="round" stroke-linejoin="round"/>
</svg>
