<svg width="90" height="90" viewBox="0 0 90 90" fill="none" xmlns="http://www.w3.org/2000/svg">
    <rect width="90" height="90" rx="24" fill="white"/>
    <path d="M65.9577 44.928H58.4723C57.8083 44.928 57.1876 45.2575 56.8156 45.8075L54.3019 49.5242C53.8457 50.1987 53.844 51.0824 54.2976 51.7587L56.8162 55.514C57.1876 56.0678 57.8105 56.4 58.4773 56.4H65.9577M65.9577 44.928H69M65.9577 44.928V42.192M65.9577 56.4V64C65.9577 65.1046 65.0623 66 63.9577 66H23C21.8954 66 21 65.1046 21 64V35.28M65.9577 56.4H67C68.1046 56.4 69 55.5046 69 54.4V44.928M27.6157 27.792H23C21.8954 27.792 21 28.6874 21 29.792V35.28M27.6157 27.792L28.1388 25.9249C28.4367 24.8616 29.5398 24.241 30.6032 24.5383L41.9819 27.72M27.6157 27.792L26.6016 31.44M55.2857 31.44H61.1288M55.2857 31.44H26.6016M55.2857 31.44L41.9819 27.72M26.6016 31.44H24.8632M41.9819 27.72H63.9577C65.0623 27.72 65.9577 28.6154 65.9577 29.72V35.28M65.9577 35.28H21M65.9577 35.28V42.192M69 44.928V44.192C69 43.0874 68.1046 42.192 67 42.192H65.9577M62.1911 50.688C62.1911 51.7749 61.3047 52.656 60.2113 52.656C59.1178 52.656 58.2314 51.7749 58.2314 50.688C58.2314 49.6011 59.1178 48.72 60.2113 48.72C61.3047 48.72 62.1911 49.6011 62.1911 50.688Z" stroke="#EB5553" stroke-width="2"/>
</svg>
