<svg width="90" height="90" viewBox="0 0 90 90" fill="none" xmlns="http://www.w3.org/2000/svg">
    <rect width="90" height="90" rx="24" fill="white"/>
    <path d="M58.165 53.3068L53.7766 57.4238M58.165 53.3068L59.9492 51.5146C60.1261 51.2886 60.4797 50.5459 60.4797 49.3835V39.9384M58.165 53.3068C58.0082 53.1063 57.5682 52.5986 56.9594 52.0268M56.9594 52.0268C56.8817 51.9538 56.8012 51.8798 56.7183 51.8052C55.9853 51.1465 54.8697 51.5308 54.4036 51.8052C54.2025 51.9587 53.9216 52.1694 53.5838 52.4178M56.9594 52.0268V41.8274M56.9594 41.8274V38.6704C56.9594 38.6118 56.9637 38.5531 56.9779 38.4961C57.0952 38.0247 57.5475 37.226 58.599 37.226C59.5983 37.226 60.1846 37.9474 60.413 38.4236C60.4624 38.5265 60.4797 38.6406 60.4797 38.7547V39.9384M56.9594 41.8274C56.7986 41.44 56.2168 40.665 55.1751 40.665C53.8731 40.665 53.4391 41.779 53.4391 42.4571C53.4391 42.6479 53.451 43.5534 53.4686 44.782M53.5838 52.4178C53.5525 50.4116 53.5009 47.0476 53.4686 44.782M53.5838 52.4178C52.6397 53.112 51.2511 54.1013 49.9188 54.9619M53.4686 44.782C53.1855 44.4591 52.4457 43.8133 51.7513 43.8133C50.8832 43.8133 49.9188 44.4914 49.9188 46.0898V54.9619M49.9188 54.9619C49.822 55.0245 49.7255 55.0863 49.6294 55.1473C47.7391 56.3485 47.2022 58.1019 47.1701 58.8285V68C47.1701 68.5523 47.6178 69 48.1701 69H55.7183C56.2706 69 56.7183 68.5523 56.7183 68V66.6266C56.7183 65.2704 57.6827 64.0595 58.165 63.6236C59.3384 62.2836 61.8878 59.3903 62.698 58.5378C63.5081 57.6854 63.9036 56.0838 64 55.3895V40.665C64 40.2291 63.8071 38.8729 62.4086 38.8729C61.2898 38.8729 60.6565 39.5832 60.4797 39.9384M31.835 53.3068L36.2234 57.4238M31.835 53.3068L30.0508 51.5146C29.8739 51.2886 29.5203 50.5459 29.5203 49.3835V39.9384M31.835 53.3068C31.9918 53.1063 32.4318 52.5986 33.0406 52.0268M33.0406 52.0268C33.1183 51.9538 33.1988 51.8798 33.2817 51.8052C34.0147 51.1465 35.1303 51.5308 35.5964 51.8052C35.7975 51.9587 36.0784 52.1694 36.4162 52.4178M33.0406 52.0268V41.8274M33.0406 41.8274V38.6704C33.0406 38.6118 33.0363 38.5531 33.0221 38.4961C32.9048 38.0247 32.4525 37.226 31.401 37.226C30.4017 37.226 29.8154 37.9474 29.587 38.4236C29.5376 38.5265 29.5203 38.6406 29.5203 38.7547V39.9384M33.0406 41.8274C33.2014 41.44 33.7832 40.665 34.8249 40.665C36.1269 40.665 36.5609 41.779 36.5609 42.4571C36.5609 42.6479 36.549 43.5534 36.5314 44.782M36.4162 52.4178C36.4475 50.4116 36.4991 47.0476 36.5314 44.782M36.4162 52.4178C37.3603 53.112 38.7489 54.1013 40.0812 54.9619M36.5314 44.782C36.8145 44.4591 37.5543 43.8133 38.2487 43.8133C39.1168 43.8133 40.0812 44.4914 40.0812 46.0898V54.9619M40.0812 54.9619C40.178 55.0245 40.2745 55.0863 40.3706 55.1473C42.2609 56.3485 42.7978 58.1019 42.8299 58.8285V68C42.8299 68.5523 42.3822 69 41.8299 69H34.2817C33.7294 69 33.2817 68.5523 33.2817 68V66.6266C33.2817 65.2704 32.3173 64.0595 31.835 63.6236C30.6616 62.2836 28.1122 59.3903 27.302 58.5378C26.4919 57.6854 26.0964 56.0838 26 55.3895V40.665C26 40.2291 26.1929 38.8729 27.5914 38.8729C28.7102 38.8729 29.3435 39.5832 29.5203 39.9384M46.5914 23.1312C46.2822 23.4763 45.542 23.7957 45.0999 23.9528C45.002 23.9875 44.8985 24.0061 44.7955 23.9925C44.191 23.9126 43.5972 23.3987 43.3604 23.1312C42.6531 22.4208 40.7081 21 38.5863 21C34.8249 21 33.0406 24.1968 33.0406 26.9576C33.0406 29.1663 34.2944 30.6226 34.9213 31.0747L44.3024 39.2287C44.6758 39.5532 45.229 39.5571 45.6053 39.2361C48.7312 36.5694 54.1201 31.9406 54.9822 31.0747C56.1396 29.9122 56.9594 28.7013 56.9594 26.9576C56.9594 23.3249 54.066 21 51.4137 21C48.7614 21 47.0254 22.6468 46.5914 23.1312Z" stroke="#EB5553" stroke-width="2"/>
</svg>
