<svg width="90" height="90" viewBox="0 0 90 90" fill="none" xmlns="http://www.w3.org/2000/svg">
    <rect width="90" height="90" rx="24" fill="white"/>
    <path d="M54.1604 41.4755C54.6902 41.4755 55.4094 41.034 55.9116 40.2767M55.9116 40.2767C56.3456 39.6223 56.6175 38.7321 56.465 37.6873M55.9116 40.2767C56.6352 40.2767 58.1425 40.2568 59.5689 39.7224M59.5689 39.7224C61.2681 39.0857 62.8526 37.719 62.8611 34.7862M59.5689 39.7224V41.4755C59.5689 42.8319 58.7231 45.426 55.4878 45.8697C54.9406 45.9448 54.4539 46.396 54.1802 46.8757C53.7211 47.6804 52.7529 48.5724 51.2912 48.5724C49.1747 48.5724 48.093 46.7982 48.093 46.3187L48.14 23.2537C48.14 22.7742 47.0583 21 44.9418 21C43.4801 21 42.5119 21.892 42.0528 22.6967C41.779 23.1764 41.2924 23.6277 40.7452 23.7027C37.5099 24.1464 36.6641 26.7405 36.6641 28.0969V29.8501M62.8611 34.7862C62.8612 34.7782 62.8612 34.7702 62.8612 34.7622M62.8611 34.7862C62.8526 31.8534 61.2681 30.4867 59.5689 29.8501M62.8611 34.7862C62.8612 34.7942 62.8612 34.8022 62.8612 34.8102M54.1604 28.0969C54.6902 28.0969 55.4094 28.5384 55.9116 29.2957M55.9116 29.2957C56.3456 29.9501 56.6175 30.8403 56.465 31.8851M55.9116 29.2957C56.6352 29.2957 58.1425 29.3156 59.5689 29.8501M59.5689 29.8501V28.0969C59.5689 26.7405 58.7231 24.1464 55.4878 23.7027C54.9406 23.6277 54.4539 23.1764 54.1802 22.6967C53.7211 21.892 52.7529 21 51.2912 21C49.1747 21 48.093 22.7742 48.093 23.2537M42.0726 41.4755C41.5428 41.4755 40.8235 41.034 40.3214 40.2767M40.3214 40.2767C39.8874 39.6223 39.6155 38.7321 39.768 37.6873M40.3214 40.2767C39.5978 40.2767 38.0905 40.2568 36.6641 39.7224M36.6641 39.7224C34.9649 39.0857 33.3804 37.719 33.3718 34.7862M36.6641 39.7224V41.4755C36.6641 42.8319 37.5099 45.426 40.7452 45.8697C41.2924 45.9448 41.779 46.396 42.0528 46.8757C42.5119 47.6804 43.4801 48.5724 44.9418 48.5724C47.0583 48.5724 48.14 46.7982 48.14 46.3187M33.3718 34.7862C33.3718 34.7782 33.3718 34.7702 33.3718 34.7622M33.3718 34.7862C33.3804 31.8534 34.9649 30.4867 36.6641 29.8501M33.3718 34.7862C33.3718 34.7942 33.3718 34.8022 33.3718 34.8102M42.0726 28.0969C41.5428 28.0969 40.8235 28.5384 40.3214 29.2957M40.3214 29.2957C39.8874 29.9501 39.6155 30.8403 39.768 31.8851M40.3214 29.2957C39.5978 29.2957 38.0905 29.3156 36.6641 29.8501M29.4681 57.6833C30.9731 55.6853 35.3942 51.6893 41.0381 51.6893C44.1422 51.6893 44.5655 51.7852 45.271 52.025C45.8354 52.2168 49.2374 53.6394 50.8679 54.3267C51.448 54.6464 52.4858 55.6118 51.9967 56.9161M29.4681 57.6833L36.7111 63.7253M29.4681 57.6833L29.0025 57.3493C28.557 57.0296 27.9372 57.1284 27.613 57.5707L25.5518 60.383C25.2411 60.8069 25.3116 61.399 25.7132 61.7381L33.5411 68.3486C33.9659 68.7074 34.6018 68.6507 34.9564 68.2225L37.2442 65.4603C37.5984 65.0327 37.5364 64.3984 37.1061 64.0475L36.7111 63.7253M51.9967 56.9161C51.3852 58.5465 50.3035 58.4026 49.7391 58.3067C49.2876 58.23 45.8197 57.2517 44.1422 56.7722M51.9967 56.9161L62.2968 53.9431C62.9552 53.8152 64.3944 53.9335 64.8836 55.4296C65.495 57.2997 63.5196 58.4026 63.0963 58.5944C62.7577 58.7479 55.0851 62.3027 51.2912 64.0609C50.4759 64.3966 48.3281 64.8665 46.2587 64.0609C44.1893 63.2553 42.2923 62.4785 41.6025 62.1908C40.9911 62.015 39.5707 61.7688 38.7805 62.1908C37.9904 62.6128 37.0717 63.3896 36.7111 63.7253" stroke="#EB5553" stroke-width="2" stroke-linecap="round" stroke-linejoin="round"/>
</svg>
