<svg width="90" height="90" viewBox="0 0 90 90" fill="none" xmlns="http://www.w3.org/2000/svg">
    <rect width="90" height="90" rx="24" fill="white"/>
    <path d="M38.5856 38.4985L41.9842 41.5606C42.3686 41.9069 42.9537 41.9029 43.3332 41.5512L52.2099 33.3263M33.9116 52.2835C36.9678 54.6101 40.8173 55.997 45 55.997C49.3663 55.997 53.3694 54.4857 56.4862 51.9718M33.9116 52.2835C29.704 49.0805 27 44.0965 27 38.4985C27 28.8343 35.0589 21 45 21C54.9411 21 63 28.8343 63 38.4985C63 43.918 60.4656 48.7621 56.4862 51.9718M33.9116 52.2835L32.2015 62.2052C32.1249 62.6495 32.3551 63.0901 32.7636 63.281L44.5867 68.8068C44.8492 68.9295 45.152 68.9323 45.4168 68.8145L57.8509 63.2798C58.2749 63.0911 58.5133 62.6354 58.4266 62.1795L56.4862 51.9718" stroke="#EB5553" stroke-width="2" stroke-linecap="round" stroke-linejoin="round"/>
</svg>
