<svg width="16" height="12" viewBox="0 0 16 12" fill="none" xmlns="http://www.w3.org/2000/svg">
    <path d="M14.6359 0.105939C14.6359 0.105939 16.116 -0.413489 15.9927 0.847981C15.9516 1.36742 15.5816 3.18541 15.2938 5.15184L14.307 10.9769C14.307 10.9769 14.2248 11.8302 13.4847 11.9786C12.7447 12.127 11.6346 11.4592 11.429 11.3108C11.2645 11.1995 8.34545 9.52988 7.31757 8.71364C7.02976 8.49102 6.70084 8.04579 7.35867 7.52636L11.6757 3.81617C12.1691 3.37094 12.6624 2.33208 10.6067 3.59355L4.85071 7.11826C4.85071 7.11826 4.19288 7.48926 2.95947 7.15536L0.287018 6.41331C0.287018 6.41331 -0.69973 5.85678 0.985963 5.30023C5.09741 3.55642 10.1545 1.77552 14.6359 0.105939Z" fill="#40A7E3"/>
</svg>
