<svg width="16" height="10" viewBox="0 0 16 10" fill="none" xmlns="http://www.w3.org/2000/svg">
    <path d="M9.68848 4.81016C9.39592 4.69195 9.39592 4.2405 9.37778 3.92611C9.30464 2.80627 9.67035 1.09665 9.23149 0.369794C8.92079 -0.0627986 7.42109 -0.0231863 6.5071 0.035918C6.25081 0.0755305 5.94011 0.134006 5.72068 0.252215C5.50125 0.370424 5.28183 0.566599 5.28183 0.743283C5.28183 0.998563 5.83069 0.959579 6.03139 1.29346C6.25081 1.64745 6.25081 2.41329 6.25081 3.04206C6.25081 3.76892 6.14081 4.73219 5.86696 4.77118C5.44625 4.79067 5.20869 4.33858 4.98926 4.00471C4.55041 3.35645 4.11156 2.55036 3.78213 1.7644C3.6177 1.35193 3.52584 0.899847 3.28827 0.723163C2.92256 0.447762 2.26429 0.42827 1.62415 0.447762C1.03901 0.467254 0.197587 0.388658 0.0331636 0.762146C-0.0949811 1.17462 0.179447 1.5676 0.325731 1.9021C1.07529 3.65071 1.87985 5.18365 2.86756 6.63736C3.78213 7.99299 4.64111 9.07384 6.32337 9.64351C6.79909 9.8007 8.88334 10.2528 9.30405 9.64351C9.45033 9.40772 9.41406 8.87704 9.4872 8.48406C9.56034 8.09108 9.65162 7.6981 9.99919 7.6786C10.2918 7.65911 10.4562 7.93388 10.6393 8.13069C10.8406 8.34698 11.005 8.52367 11.1513 8.72047C11.4989 9.09396 11.8646 9.60452 12.3035 9.80133C12.9067 10.0767 13.8394 9.99813 14.7171 9.95852C15.4304 9.93903 15.9424 9.78183 15.9974 9.32975C16.0343 8.97575 15.668 8.46519 15.4486 8.1703C14.8997 7.44344 14.644 7.22715 14.022 6.55877C13.7476 6.26387 13.4 5.94949 13.4 5.59612C13.3819 5.37982 13.5463 5.18365 13.6926 4.96735C14.3327 3.9456 14.9728 3.21875 15.558 2.15738C15.7224 1.843 16.1068 1.11614 15.9606 0.762146C15.7961 0.369166 14.8816 0.486745 14.3146 0.486745C13.5831 0.486745 12.6323 0.427641 12.4492 0.584833C12.1016 0.840113 11.9553 1.25322 11.7909 1.6462C11.4252 2.55037 10.9313 3.4734 10.4193 4.16127C10.2362 4.39706 9.88919 4.88813 9.6879 4.80953L9.68848 4.81016Z" fill="#0077FF"/>
</svg>
